ffmpeg version 2.1.1 Copyright (c) 2000-2013 the FFmpeg developers
  built on Dec 20 2014 10:34:55 with gcc 4.7 (Debian 4.7.2-5)
  configuration: --enable-gpl --enable-nonfree --enable-postproc --enable-pthreads --enable-x11grab --enable-swscale --enable-version3 --enable-shared --disable-yasm --enable-filter=movie --enable-frei0r --enable-libdc1394 --enable-libfaac --enable-libmp3lame --enable-libx264 --enable-libxvid --enable-libfreetype --enable-libvorbis --enable-libgsm --enable-libopencore-amrnb --enable-libopencore-amrwb --enable-libopenjpeg --enable-librtmp --enable-libschroedinger --enable-libspeex --enable-libtheora --enable-libvpx --enable-libvo-amrwbenc --enable-libvo-aacenc --enable-libaacplus --enable-libxavs --enable-bzlib --enable-openssl --enable-gnutls --enable-openal --enable-libv4l2 --enable-libpulse --enable-libmodplug --enable-libass --enable-libcdio --enable-vdpau --enable-libbluray
  libavutil      52. 48.101 / 52. 48.101
  libavcodec     55. 39.101 / 55. 39.101
  libavformat    55. 19.104 / 55. 19.104
  libavdevice    55.  5.100 / 55.  5.100
  libavfilter     3. 90.100 /  3. 90.100
  libswscale      2.  5.101 /  2.  5.101
  libswresample   0. 17.104 /  0. 17.104
  libpostproc    52.  3.100 / 52.  3.100
Input #0, mov,mp4,m4a,3gp,3g2,mj2, from '/var/www/business-supermarket.com/web/www/temp/0955755001426526844.mp4':
  Metadata:
    major_brand     : mp42
    minor_version   : 0
    compatible_brands: mp42mp41
    creation_time   : 2014-06-18 17:13:32
  Duration: 00:00:10.05, start: 0.000000, bitrate: 3261 kb/s
    Stream #0:0(eng): Video: h264 (High) (avc1 / 0x31637661), yuv420p(tv, bt709), 1920x1080 [SAR 1:1 DAR 16:9], 3011 kb/s, 30 fps, 30 tbr, 30k tbn, 60 tbc (default)
    Metadata:
      creation_time   : 2014-06-18 17:13:32
      handler_name    : Alias Data Handler
    Stream #0:1(eng): Audio: aac (mp4a / 0x6134706D), 32000 Hz, stereo, fltp, 254 kb/s (default)
    Metadata:
      creation_time   : 2014-06-18 17:13:32
      handler_name    : Alias Data Handler
Please use -b:a or -b:v, -b is ambiguous
Output #0, flv, to '/var/www/business-supermarket.com/web/www/upload/users/updesigns_940/videos/0955755001426526844.flv':
  Metadata:
    major_brand     : mp42
    minor_version   : 0
    compatible_brands: mp42mp41
    encoder         : Lavf55.19.104
    Stream #0:0(eng): Video: flv1 (flv) ([2][0][0][0] / 0x0002), yuv420p, 512x384 [SAR 4:3 DAR 16:9], q=2-31, 1000 kb/s, 1k tbn, 30 tbc (default)
    Metadata:
      creation_time   : 2014-06-18 17:13:32
      handler_name    : Alias Data Handler
    Stream #0:1(eng): Audio: mp3 (libmp3lame) ([2][0][0][0] / 0x0002), 44100 Hz, stereo, fltp, 128 kb/s (default)
    Metadata:
      creation_time   : 2014-06-18 17:13:32
      handler_name    : Alias Data Handler
Stream mapping:
  Stream #0:0 -> #0:0 (h264 -> flv)
  Stream #0:1 -> #0:1 (aac -> libmp3lame)
Press [q] to stop, [?] for help
frame=    2 fps=1.8 q=2.0 size=       0kB time=00:00:00.10 bitrate=  30.9kbits/s    frame=   27 fps= 17 q=2.0 size=      83kB time=00:00:00.93 bitrate= 732.5kbits/s    frame=   54 fps= 26 q=2.0 size=     147kB time=00:00:01.83 bitrate= 656.9kbits/s    frame=   79 fps= 30 q=2.0 size=     216kB time=00:00:02.66 bitrate= 662.6kbits/s    frame=  105 fps= 34 q=2.0 size=     335kB time=00:00:03.53 bitrate= 777.9kbits/s    frame=  134 fps= 37 q=2.0 size=     421kB time=00:00:04.50 bitrate= 766.5kbits/s    frame=  161 fps= 39 q=2.0 size=     523kB time=00:00:05.40 bitrate= 793.3kbits/s    frame=  185 fps= 40 q=2.0 size=     656kB time=00:00:06.20 bitrate= 866.6kbits/s    frame=  213 fps= 41 q=2.0 size=     777kB time=00:00:07.13 bitrate= 892.2kbits/s    frame=  238 fps= 42 q=2.0 size=     972kB time=00:00:07.96 bitrate= 999.7kbits/s    frame=  265 fps= 43 q=1.6 size=    1104kB time=00:00:08.88 bitrate=1018.1kbits/s    frame=  295 fps= 44 q=2.0 size=    1156kB time=00:00:09.86 bitrate= 960.0kbits/s    frame=  300 fps= 43 q=2.0 Lsize=    1203kB time=00:00:10.05 bitrate= 979.8kbits/s    
video:1034kB audio:158kB subtitle:0 global headers:0kB muxing overhead 0.931234%
